<?xml version="1.0" ?><svg style="enable-background:new 0 0 128 128;" version="1.1" viewBox="0 0 128 128" xml:space="preserve" xmlns="http://www.w3.org/2000/svg" xmlns:xlink="http://www.w3.org/1999/xlink"><g id="Layer_1"/><g id="refrigerator"/><g id="washer"/><g id="tv"/><g id="microwawe"/><g id="vacuum_cleaner"/><g id="Gift"/><g id="umbrella"/><g id="rocket"/><g id="basket"/><g id="shopping"/><g id="email"/><g id="message"/><g id="delivery"/><g id="store"/><g id="label"/><g id="phone"/><g id="imac"/><g id="laptop"/><g id="heart_like"/><g id="game"/><g id="wallet"/><g id="camera"/><g id="battery"/><g id="shoes"/><g id="t-shirt"/><g id="pencil"/><g id="people"/><g id="statistics"/><g id="blog"/><g id="rock"/><g id="like"/><g id="dislike"/><g id="speaker"/><g id="pc"/><g id="glasses"/><g id="headphones"/><g id="player"/><g id="book"/><g id="transfer"/><g id="mouse"/><g id="package"/><g id="exellent"/><g id="card"/><g id="induction"/><g id="revers_camera"/><g id="flesh_drive"/><g id="time"/><g id="sale"/><g id="tablet"/><g id="search"><g><g><path d="M47.029,80.014c-8.45,0-16.9-3.217-23.334-9.649c-12.867-12.866-12.867-33.803,0-46.669     c12.868-12.868,33.803-12.867,46.669,0l0,0c12.866,12.866,12.866,33.803,0,46.669C63.931,76.797,55.48,80.014,47.029,80.014z      M47.03,18.043c-7.427,0-14.854,2.827-20.507,8.48c-11.307,11.308-11.307,29.705,0,41.013c11.308,11.307,29.705,11.305,41.013,0     c11.306-11.308,11.306-29.705,0-41.013C61.883,20.87,54.456,18.043,47.03,18.043z" style="fill:#505070;"/></g><g><path d="M47.029,73.018c-6.658,0-13.316-2.534-18.385-7.604c-10.137-10.138-10.137-26.632,0-36.77     c10.137-10.137,26.633-10.137,36.77,0l0,0c10.138,10.138,10.138,26.632,0,36.77C60.346,70.483,53.688,73.018,47.029,73.018z      M47.029,25.04c-5.634,0-11.268,2.145-15.557,6.433c-8.577,8.578-8.577,22.535,0,31.113c8.579,8.578,22.534,8.576,31.113,0     c8.578-8.578,8.578-22.535,0-31.113l0,0C58.297,27.185,52.663,25.04,47.029,25.04z" style="fill:#505070;"/></g><g><path d="M97.941,106.938c-2.306,0-4.61-0.877-6.364-2.632L74.606,87.335c-3.509-3.51-3.509-9.219,0-12.728     c1.699-1.7,3.96-2.637,6.364-2.637c2.403,0,4.664,0.937,6.363,2.637l16.971,16.971c3.509,3.508,3.509,9.218,0,12.728l0,0     C102.551,106.061,100.246,106.938,97.941,106.938z M80.971,75.971c-1.336,0-2.592,0.521-3.536,1.465     c-1.949,1.949-1.949,5.121,0,7.071l16.971,16.971c1.948,1.948,5.121,1.95,7.071,0c1.949-1.95,1.949-5.122,0-7.071L84.506,77.436     C83.562,76.491,82.306,75.971,80.971,75.971z" style="fill:#505070;"/></g><g><path d="M73.899,81.557c-0.512,0-1.023-0.195-1.414-0.586l-7.778-7.778c-0.781-0.781-0.781-2.047,0-2.828     s2.047-0.781,2.828,0l7.778,7.778c0.781,0.781,0.781,2.047,0,2.828C74.923,81.361,74.411,81.557,73.899,81.557z" style="fill:#505070;"/></g><g><path d="M79.557,75.899c-0.512,0-1.023-0.195-1.414-0.586l-7.778-7.778c-0.781-0.781-0.781-2.047,0-2.828     s2.047-0.781,2.828,0l7.778,7.778c0.781,0.781,0.781,2.047,0,2.828C80.58,75.704,80.068,75.899,79.557,75.899z" style="fill:#505070;"/></g></g></g></svg>